<?xml version="1.0" standalone="no"?><svg xmlns="http://www.w3.org/2000/svg" viewBox="0 0 1440 320"><path fill="#b40c0b" fill-opacity="1" d="M0,288L40,245.3C80,203,160,117,240,106.7C320,96,400,160,480,197.3C560,235,640,245,720,208C800,171,880,85,960,90.7C1040,96,1120,192,1200,240C1280,288,1360,288,1400,288L1440,288L1440,320L1400,320C1360,320,1280,320,1200,320C1120,320,1040,320,960,320C880,320,800,320,720,320C640,320,560,320,480,320C400,320,320,320,240,320C160,320,80,320,40,320L0,320Z"></path></svg>