<?xml version="1.0" standalone="no"?><svg xmlns="http://www.w3.org/2000/svg" viewBox="0 0 1440 320"><path fill="#014871" fill-opacity="1" d="M0,128L6.9,106.7C13.7,85,27,43,41,26.7C54.9,11,69,21,82,58.7C96,96,110,160,123,197.3C137.1,235,151,245,165,240C178.3,235,192,213,206,186.7C219.4,160,233,128,247,144C260.6,160,274,224,288,245.3C301.7,267,315,245,329,234.7C342.9,224,357,224,370,208C384,192,398,160,411,170.7C425.1,181,439,235,453,218.7C466.3,203,480,117,494,122.7C507.4,128,521,224,535,272C548.6,320,562,320,576,282.7C589.7,245,603,171,617,160C630.9,149,645,203,658,192C672,181,686,107,699,112C713.1,117,727,203,741,218.7C754.3,235,768,181,782,170.7C795.4,160,809,192,823,181.3C836.6,171,850,117,864,117.3C877.7,117,891,171,905,202.7C918.9,235,933,245,946,234.7C960,224,974,192,987,165.3C1001.1,139,1015,117,1029,101.3C1042.3,85,1056,75,1070,85.3C1083.4,96,1097,128,1111,122.7C1124.6,117,1138,75,1152,74.7C1165.7,75,1179,117,1193,138.7C1206.9,160,1221,160,1234,149.3C1248,139,1262,117,1275,138.7C1289.1,160,1303,224,1317,234.7C1330.3,245,1344,203,1358,192C1371.4,181,1385,203,1399,186.7C1412.6,171,1426,117,1433,90.7L1440,64L1440,320L1433.1,320C1426.3,320,1413,320,1399,320C1385.1,320,1371,320,1358,320C1344,320,1330,320,1317,320C1302.9,320,1289,320,1275,320C1261.7,320,1248,320,1234,320C1220.6,320,1207,320,1193,320C1179.4,320,1166,320,1152,320C1138.3,320,1125,320,1111,320C1097.1,320,1083,320,1070,320C1056,320,1042,320,1029,320C1014.9,320,1001,320,987,320C973.7,320,960,320,946,320C932.6,320,919,320,905,320C891.4,320,878,320,864,320C850.3,320,837,320,823,320C809.1,320,795,320,782,320C768,320,754,320,741,320C726.9,320,713,320,699,320C685.7,320,672,320,658,320C644.6,320,631,320,617,320C603.4,320,590,320,576,320C562.3,320,549,320,535,320C521.1,320,507,320,494,320C480,320,466,320,453,320C438.9,320,425,320,411,320C397.7,320,384,320,370,320C356.6,320,343,320,329,320C315.4,320,302,320,288,320C274.3,320,261,320,247,320C233.1,320,219,320,206,320C192,320,178,320,165,320C150.9,320,137,320,123,320C109.7,320,96,320,82,320C68.6,320,55,320,41,320C27.4,320,14,320,7,320L0,320Z"></path></svg>