<?xml version="1.0" standalone="no"?><svg xmlns="http://www.w3.org/2000/svg" viewBox="0 0 1440 320"><path fill="#014871" fill-opacity="1" d="M0,64L30,101.3C60,139,120,213,180,245.3C240,277,300,267,360,224C420,181,480,107,540,106.7C600,107,660,181,720,224C780,267,840,277,900,261.3C960,245,1020,203,1080,192C1140,181,1200,203,1260,181.3C1320,160,1380,96,1410,64L1440,32L1440,0L1410,0C1380,0,1320,0,1260,0C1200,0,1140,0,1080,0C1020,0,960,0,900,0C840,0,780,0,720,0C660,0,600,0,540,0C480,0,420,0,360,0C300,0,240,0,180,0C120,0,60,0,30,0L0,0Z"></path></svg>