<?xml version="1.0" standalone="no"?><svg xmlns="http://www.w3.org/2000/svg" viewBox="0 0 1440 320"><path fill="#014871" fill-opacity="1" d="M0,192L6.3,176C12.6,160,25,128,38,117.3C50.5,107,63,117,76,128C88.4,139,101,149,114,138.7C126.3,128,139,96,152,112C164.2,128,177,192,189,224C202.1,256,215,256,227,218.7C240,181,253,107,265,64C277.9,21,291,11,303,5.3C315.8,0,328,0,341,26.7C353.7,53,366,107,379,117.3C391.6,128,404,96,417,106.7C429.5,117,442,171,455,165.3C467.4,160,480,96,493,90.7C505.3,85,518,139,531,170.7C543.2,203,556,213,568,186.7C581.1,160,594,96,606,101.3C618.9,107,632,181,644,186.7C656.8,192,669,128,682,101.3C694.7,75,707,85,720,106.7C732.6,128,745,160,758,192C770.5,224,783,256,796,266.7C808.4,277,821,267,834,250.7C846.3,235,859,213,872,197.3C884.2,181,897,171,909,149.3C922.1,128,935,96,947,85.3C960,75,973,85,985,106.7C997.9,128,1011,160,1023,154.7C1035.8,149,1048,107,1061,74.7C1073.7,43,1086,21,1099,26.7C1111.6,32,1124,64,1137,74.7C1149.5,85,1162,75,1175,101.3C1187.4,128,1200,192,1213,234.7C1225.3,277,1238,299,1251,272C1263.2,245,1276,171,1288,133.3C1301.1,96,1314,96,1326,96C1338.9,96,1352,96,1364,101.3C1376.8,107,1389,117,1402,122.7C1414.7,128,1427,128,1434,128L1440,128L1440,0L1433.7,0C1427.4,0,1415,0,1402,0C1389.5,0,1377,0,1364,0C1351.6,0,1339,0,1326,0C1313.7,0,1301,0,1288,0C1275.8,0,1263,0,1251,0C1237.9,0,1225,0,1213,0C1200,0,1187,0,1175,0C1162.1,0,1149,0,1137,0C1124.2,0,1112,0,1099,0C1086.3,0,1074,0,1061,0C1048.4,0,1036,0,1023,0C1010.5,0,998,0,985,0C972.6,0,960,0,947,0C934.7,0,922,0,909,0C896.8,0,884,0,872,0C858.9,0,846,0,834,0C821.1,0,808,0,796,0C783.2,0,771,0,758,0C745.3,0,733,0,720,0C707.4,0,695,0,682,0C669.5,0,657,0,644,0C631.6,0,619,0,606,0C593.7,0,581,0,568,0C555.8,0,543,0,531,0C517.9,0,505,0,493,0C480,0,467,0,455,0C442.1,0,429,0,417,0C404.2,0,392,0,379,0C366.3,0,354,0,341,0C328.4,0,316,0,303,0C290.5,0,278,0,265,0C252.6,0,240,0,227,0C214.7,0,202,0,189,0C176.8,0,164,0,152,0C138.9,0,126,0,114,0C101.1,0,88,0,76,0C63.2,0,51,0,38,0C25.3,0,13,0,6,0L0,0Z"></path></svg>