<?xml version="1.0" standalone="no"?><svg xmlns="http://www.w3.org/2000/svg" viewBox="0 0 1440 320"><path fill="#014871" fill-opacity="1" d="M0,32L30,48C60,64,120,96,180,133.3C240,171,300,213,360,192C420,171,480,85,540,96C600,107,660,213,720,229.3C780,245,840,171,900,154.7C960,139,1020,181,1080,213.3C1140,245,1200,267,1260,234.7C1320,203,1380,117,1410,74.7L1440,32L1440,320L1410,320C1380,320,1320,320,1260,320C1200,320,1140,320,1080,320C1020,320,960,320,900,320C840,320,780,320,720,320C660,320,600,320,540,320C480,320,420,320,360,320C300,320,240,320,180,320C120,320,60,320,30,320L0,320Z"></path></svg>